<svg xmlns="http://www.w3.org/2000/svg" viewBox="0 0 40.55 70.66"><defs><style>.cls-1{font-size:22.33px;font-family:Ubuntu-Bold, Ubuntu;font-weight:700;letter-spacing:-0.02em;}.cls-2{letter-spacing:-0.02em;}.cls-3{letter-spacing:0em;}.cls-4{fill:none;stroke:#000;stroke-miterlimit:10;}</style></defs><title>Asset 2</title><g id="Layer_2" data-name="Layer 2"><g id="Layer_1-2" data-name="Layer 1"><text class="cls-1" transform="translate(0.04 65.72) rotate(-0.12)">L<tspan class="cls-2" x="12.12" y="0">C</tspan><tspan class="cls-3" x="26.03" y="0">C</tspan></text><path d="M27,3a1.22,1.22,0,0,0,.5,1.6c1.8,1.1,1.1,2.5-4,7.9-4.9,5.2-6.1,7.6-3.9,7.6.6,0,4.1-2.8,7.7-6.2s6.9-6.4,7.2-6.6c.6-.5-4.8-5.2-6-5.2A2.2,2.2,0,0,0,27,3Z"/><path d="M17.13,10.56a2.09,2.09,0,0,1-2.3,1.3c-1.3-.2-1.8.4-1.8,2.2,0,3.6,3.7,4,5.3.5,1.4-3.1,1.5-5.5.3-5.5C18.13,9.06,17.43,9.76,17.13,10.56Z"/><path d="M28.53,46.06c.36,0-.18-.38,0,0,.31,0-.22-.93,0-1-7.39-.88-12-2,0,2-.5-.11,1.66-3.67,4-5.8,2.7-2.5,2.9-2.9,1.7-5.2a5.57,5.57,0,0,0-4.7-3l-3.5-.5,4.9-5.2c4.1-4.4,4.7-5.5,3.6-6.8-1.4-1.6-4.1-2-5.5-.7a30.34,30.34,0,0,1-6,2.7c-2.7,1-8.1,3.4-12,5.4s-7.3,3.7-7.8,3.9l-.56,7,.13,0C3.36,37.24,5,36,10.13,32.76a109.6,109.6,0,0,1,13.2-7.4l5.7-2.5-2,2.4c-1.1,1.2-3.2,3.7-4.7,5.3-1.9,2.1-2.6,3.7-2.2,5.3.7,2.5,2.1,2.7,4.8.7s3.6-1.9,3.6.5c0,1.1-1.2,2.7-2.7,3.7a29.26,29.26,0,0,0-4.1,3,3.06,3.06,0,0,1-.75.55c.36.18.72.36,1.09.52,0,0,0,0,.06-.07.3-.3,2.5.9,3.4,1.3"/><rect class="cls-4" x="1.03" y="0.5" width="38.5" height="48"/></g></g></svg>