<svg xmlns="http://www.w3.org/2000/svg" viewBox="0 0 119.22 51"><defs><style>.cls-1,.cls-3{fill:#effcef;}.cls-1,.cls-2{stroke:#effcef;stroke-miterlimit:10;}.cls-2{fill:none;}.cls-3{font-size:12px;font-family:Ubuntu-Bold, Ubuntu;font-weight:700;}.cls-4{letter-spacing:-0.02em;}.cls-5{letter-spacing:-0.02em;}.cls-6{letter-spacing:0.03em;}.cls-7{letter-spacing:0em;}.cls-8{letter-spacing:-0.02em;}.cls-9{letter-spacing:0em;}</style></defs><title>logo_w_long_fixed</title><g id="Layer_2" data-name="Layer 2"><g id="Layer_1-2" data-name="Layer 1"><path class="cls-1" d="M27.5,4a1.22,1.22,0,0,0,.5,1.6c1.8,1.1,1.1,2.5-4,7.9-4.9,5.2-6.1,7.6-3.9,7.6.6,0,4.1-2.8,7.7-6.2s6.9-6.4,7.2-6.6c.6-.5-4.8-5.2-6-5.2A2.2,2.2,0,0,0,27.5,4Z"/><path class="cls-1" d="M17.6,11.56a2.09,2.09,0,0,1-2.3,1.3c-1.3-.2-1.8.4-1.8,2.2,0,3.6,3.7,4,5.3.5,1.4-3.1,1.5-5.5.3-5.5C18.6,10.06,17.9,10.76,17.6,11.56Z"/><path class="cls-1" d="M29,47.06c.36,0-.17-.38,0,0,.32,0-.22-.93,0-1-7.38-.88-12-2,0,2-.49-.11,1.67-3.67,4-5.8,2.7-2.5,2.9-2.9,1.7-5.2a5.57,5.57,0,0,0-4.7-3l-3.5-.5,4.9-5.2c4.1-4.4,4.7-5.5,3.6-6.8-1.4-1.6-4.1-2-5.5-.7a30.34,30.34,0,0,1-6,2.7c-2.7,1-8.1,3.4-12,5.4s-7.3,3.7-7.8,3.9l-.55,7,.13,0c.56-1.65,2.23-2.91,7.32-6.13a109.6,109.6,0,0,1,13.2-7.4l5.7-2.5-2,2.4c-1.1,1.2-3.2,3.7-4.7,5.3-1.9,2.1-2.6,3.7-2.2,5.3.7,2.5,2.1,2.7,4.8.7s3.6-1.9,3.6.5c0,1.1-1.2,2.7-2.7,3.7a29.26,29.26,0,0,0-4.1,3,2.88,2.88,0,0,1-.75.55c.36.18.73.36,1.1.52l.05-.07c.3-.3,2.5.9,3.4,1.3"/><rect class="cls-2" x="0.5" y="0.5" width="39.5" height="50"/><text class="cls-3" transform="translate(43.68 12.25)"><tspan class="cls-4">L</tspan><tspan x="6.52" y="0">OGOS</tspan></text><text class="cls-3" transform="translate(43.68 28.5)"><tspan class="cls-5">C</tspan><tspan x="7.48" y="0">OMMUNI</tspan><tspan class="cls-6" x="59.83" y="0">T</tspan><tspan class="cls-7" x="67.61" y="0">Y</tspan></text><text class="cls-3" transform="translate(43.68 46.5)">CHU<tspan class="cls-8" x="25.07" y="0">R</tspan><tspan class="cls-9" x="32.86" y="0">CH</tspan></text></g></g></svg>