<svg xmlns="http://www.w3.org/2000/svg" viewBox="0 0 41.03 73.66"><defs><style>.cls-1{font-size:22.33px;font-family:Ubuntu-Bold, Ubuntu;font-weight:700;letter-spacing:-0.02em;}.cls-1,.cls-4{fill:#effcef;}.cls-2{letter-spacing:-0.02em;}.cls-3{letter-spacing:0em;}.cls-4,.cls-5{stroke:#effcef;stroke-miterlimit:10;}.cls-5{fill:none;}</style></defs><title>Asset 5</title><g id="Layer_2" data-name="Layer 2"><g id="Layer_1-2" data-name="Layer 1"><text class="cls-1" transform="translate(0.04 68.72) rotate(-0.12)">L<tspan class="cls-2" x="12.12" y="0">C</tspan><tspan class="cls-3" x="26.03" y="0">C</tspan></text><path class="cls-4" d="M29,4a1.22,1.22,0,0,0,.5,1.6c1.8,1.1,1.1,2.5-4,7.9-4.9,5.2-6.1,7.6-3.9,7.6.6,0,4.1-2.8,7.7-6.2s6.9-6.4,7.2-6.6c.6-.5-4.8-5.2-6-5.2A2.2,2.2,0,0,0,29,4Z"/><path class="cls-4" d="M19.13,11.38a2.15,2.15,0,0,1-2.3,1.13c-1.3-.17-1.8.35-1.8,1.93,0,3.15,3.7,3.5,5.3.44,1.4-2.72,1.5-4.82.3-4.82A2.12,2.12,0,0,0,19.13,11.38Z"/><path class="cls-4" d="M30.53,47.06c.36,0-.18-.38,0,0,.31,0-.22-.93,0-1-7.39-.88-12-2,0,2-.5-.11,1.66-3.67,4-5.8,2.7-2.5,2.9-2.9,1.7-5.2a5.57,5.57,0,0,0-4.7-3l-3.5-.5,4.9-5.2c4.1-4.4,4.7-5.5,3.6-6.8-1.4-1.6-4.1-2-5.5-.7a30.34,30.34,0,0,1-6,2.7c-2.7,1-8.1,3.4-12,5.4s-7.3,3.7-7.8,3.9l-.56,7,.13,0C5.36,38.24,7,37,12.13,33.76a109.6,109.6,0,0,1,13.2-7.4l5.7-2.5-2,2.4c-1.1,1.2-3.2,3.7-4.7,5.3-1.9,2.1-2.6,3.7-2.2,5.3.7,2.5,2.1,2.7,4.8.7s3.6-1.9,3.6.5c0,1.1-1.2,2.7-2.7,3.7a29.26,29.26,0,0,0-4.1,3,3.06,3.06,0,0,1-.75.55c.36.18.72.36,1.09.52,0,0,0,0,.06-.07.3-.3,2.5.9,3.4,1.3"/><rect class="cls-5" x="2.03" y="0.5" width="38.5" height="50"/></g></g></svg>