<?xml version="1.0" encoding="utf-8"?>
<!-- Generator: Adobe Illustrator 19.1.0, SVG Export Plug-In . SVG Version: 6.00 Build 0)  -->
<!DOCTYPE svg PUBLIC "-//W3C//DTD SVG 1.1//EN" "http://www.w3.org/Graphics/SVG/1.1/DTD/svg11.dtd">
<svg version="1.1" xmlns="http://www.w3.org/2000/svg" xmlns:xlink="http://www.w3.org/1999/xlink" x="0px" y="0px"
	 viewBox="0 0 120 120" style="enable-background:new 0 0 120 120;" xml:space="preserve">
<style type="text/css">
	.st0{fill:#FDBE23;}
	.st1{fill:none;stroke:#026699;stroke-width:7;stroke-miterlimit:10;}
	.st2{fill:#026699;}
	.st3{fill:none;stroke:#0E3253;stroke-width:7;stroke-miterlimit:10;}
	.st4{fill:none;stroke:#0E3253;stroke-width:4;stroke-miterlimit:10;}
	.st5{fill:#FFFFFF;}
	.st6{fill:#026699;stroke:#036699;stroke-width:7;stroke-miterlimit:10;}
	.st7{fill:#036699;stroke:#036699;stroke-width:4;stroke-miterlimit:10;}
	.st8{fill:none;stroke:#026699;stroke-width:4;stroke-miterlimit:10;}
	.st9{fill:none;stroke:#FDBE23;stroke-width:7;stroke-miterlimit:10;}
	.st10{fill:none;stroke:#FDBE23;stroke-width:4;stroke-miterlimit:10;}
	.st11{fill:#FDBE24;}
	.st12{fill:#0E3253;}
	.st13{fill:#036699;}
	.st14{fill:#FCBD21;}
	.st15{fill:#026699;stroke:#036699;stroke-width:4;stroke-miterlimit:10;}
	.st16{fill:none;stroke:#FCBD21;stroke-width:4;stroke-miterlimit:10;}
	.st17{fill:#FCBD21;stroke:#FCBD21;stroke-miterlimit:10;}
	.st18{fill:none;stroke:#5F6672;stroke-width:7;stroke-miterlimit:10;}
	.st19{fill:none;stroke:#FCBD21;stroke-width:7;stroke-miterlimit:10;}
	.st20{fill:none;stroke:#036699;stroke-width:4;stroke-miterlimit:10;}
	.st21{fill:#FDBE23;stroke:#FCBD21;stroke-width:3;stroke-miterlimit:10;}
	.st22{fill:#FFFFFF;stroke:#FDBE23;stroke-width:7;stroke-miterlimit:10;}
	.st23{fill:none;stroke:#FFFFFF;stroke-width:7;stroke-miterlimit:10;}
	.st24{fill:none;stroke:#FFFFFF;stroke-width:4;stroke-miterlimit:10;}
	.st25{fill:#FDFEFE;}
</style>
<g id="Layer_1">
	<g>
		<g>
			<path class="st2" d="M112,115.4H8c-1.7,0-3-1.3-3-3v-50c0-1.7,1.3-3,3-3h104c1.7,0,3,1.3,3,3v50C115,114,113.6,115.4,112,115.4z"
				/>
			<g>
				<polygon class="st5" points="10.9,79.1 10.9,65.3 24.7,65.3 				"/>
				<polygon class="st5" points="24.7,109.5 10.9,109.5 10.9,95.6 				"/>
				<polygon class="st5" points="109.4,95.6 109.4,109.5 95.5,109.5 				"/>
				<polygon class="st5" points="95.5,65.3 109.4,65.3 109.4,79.1 				"/>
			</g>
			<g>
				<path class="st5" d="M68.5,91.7c0,1.8-0.6,3.2-1.9,4.3s-3.1,1.7-5.4,1.9v3.4h-2.3V98c-2.7-0.1-5.1-0.5-7.2-1.4v-4.4
					c1,0.5,2.1,0.9,3.5,1.3c1.4,0.4,2.6,0.6,3.7,0.7v-5.2l-1.1-0.4c-2.2-0.9-3.8-1.8-4.7-2.8c-0.9-1-1.4-2.3-1.4-3.8
					c0-1.6,0.6-2.9,1.9-4c1.3-1,3-1.7,5.3-1.9v-2.6h2.3v2.5c2.6,0.1,4.9,0.6,6.9,1.5l-1.6,3.9c-1.7-0.7-3.5-1.1-5.4-1.3v4.9
					c2.2,0.8,3.7,1.6,4.6,2.2s1.6,1.3,2,2C68.3,89.9,68.5,90.7,68.5,91.7z M56.7,81.8c0,0.5,0.2,0.9,0.5,1.2c0.3,0.3,0.9,0.6,1.6,1
					v-3.9C57.5,80.3,56.7,80.9,56.7,81.8z M63.5,92c0-0.5-0.2-0.9-0.6-1.2c-0.4-0.3-0.9-0.7-1.7-1v4.2C62.7,93.7,63.5,93,63.5,92z"
					/>
			</g>
		</g>
		<polygon class="st0" points="80.4,32.1 73.6,25.3 64.9,34.1 64.9,4.6 55.3,4.6 55.3,34.1 46.6,25.3 39.9,32.1 60.1,52.3 
			60.1,52.3 		"/>
	</g>
</g>
<g id="Layer_2">
</g>
<g id="Isolation_Mode">
</g>
</svg>
